0
SECTION
2
HEADER
9
$INSUNITS
70
4
0
ENDSEC
0
SECTION
2
TABLES
0
TABLE
2
LTYPE
0
LTYPE
72
65
70
64
2
CONTINUOUS
3
______
73
0
40
0
0
ENDTAB
0
TABLE
2
LAYER
0
ENDTAB
0
ENDSEC
0
SECTION
2
ENTITIES
0
LINE
8
0
10
90
20
-90.5
11
99
21
-90.5
0
LINE
8
0
10
90
20
-90.5
11
90
21
-14.5
0
LINE
8
0
10
90
20
-14.5
11
109
21
-14.5
0
LINE
8
0
10
109
20
-107.5
11
129
21
-107.5
0
LINE
8
0
10
129
20
-107.5
11
129
21
-105.5
0
LINE
8
0
10
109
20
-98.5
11
109
21
-107.5
0
LINE
8
0
10
109
20
-98.5
11
99
21
-98.5
0
LINE
8
0
10
99
20
-98.5
11
99
21
-90.5
0
LINE
8
0
10
109
20
-12.5
11
128
21
-12.5
0
LINE
8
0
10
109
20
-12.5
11
109
21
-14.5
0
LINE
8
0
10
129
20
-105.5
11
148
21
-105.5
0
LINE
8
0
10
148
20
-105.5
11
148
21
-103.5
0
LINE
8
0
10
128
20
-10.5
11
147
21
-10.5
0
LINE
8
0
10
128
20
-10.5
11
128
21
-12.5
0
LINE
8
0
10
148
20
-103.5
11
167
21
-103.5
0
LINE
8
0
10
167
20
-103.5
11
167
21
-101.5
0
LINE
8
0
10
147
20
-8.5
11
166
21
-8.5
0
LINE
8
0
10
147
20
-8.5
11
147
21
-10.5
0
LINE
8
0
10
167
20
-101.5
11
186
21
-101.5
0
LINE
8
0
10
186
20
-101.5
11
186
21
-92.5
0
LINE
8
0
10
196
20
-87.5
11
196
21
-92.5
0
LINE
8
0
10
196
20
-92.5
11
186
21
-92.5
0
LINE
8
0
10
186
20
-11.5
11
186
21
-6.5
0
LINE
8
0
10
186
20
-6.5
11
166
21
-6.5
0
LINE
8
0
10
166
20
-6.5
11
166
21
-8.5
0
LINE
8
0
10
196
20
-87.5
11
205
21
-87.5
0
LINE
8
0
10
205
20
-87.5
11
205
21
-11.5
0
LINE
8
0
10
186
20
-11.5
11
205
21
-11.5
0
LINE
8
0
10
254.5881049
20
-134.1180392
11
264.6820477
21
-96.446932
0
LINE
8
0
10
245.8947724
20
-131.7886678
11
254.5881049
21
-134.1180392
0
LINE
8
0
10
230.5879512
20
-111.6404365
11
231.4938178
21
-108.2596962
0
LINE
8
0
10
203.542028
20
-104.3935032
11
230.5879512
21
-111.6404365
0
LINE
8
0
10
198.3656471
20
-123.7120197
11
244.7300868
21
-136.1353339
0
LINE
8
0
10
245.8947724
20
-131.7886678
11
244.7300868
21
-136.1353339
0
LINE
8
0
10
203.542028
20
-104.3935032
11
198.3656471
21
-123.7120197
0
LINE
8
0
10
209.6242756
20
-81.6942463
11
264.6820477
21
-96.446932
0
LINE
8
0
10
204.4478947
20
-101.0127628
11
231.4938178
21
-108.2596962
0
LINE
8
0
10
209.6242756
20
-81.6942463
11
204.4478947
21
-101.0127628
0
LINE
8
0
10
471
20
-90.5
11
480
21
-90.5
0
LINE
8
0
10
480
20
-90.5
11
480
21
-14.5
0
LINE
8
0
10
461
20
-14.5
11
480
21
-14.5
0
LINE
8
0
10
441
20
-107.5
11
461
21
-107.5
0
LINE
8
0
10
461
20
-107.5
11
461
21
-98.5
0
LINE
8
0
10
441
20
-105.5
11
441
21
-107.5
0
LINE
8
0
10
471
20
-90.5
11
471
21
-98.5
0
LINE
8
0
10
471
20
-98.5
11
461
21
-98.5
0
LINE
8
0
10
461
20
-14.5
11
461
21
-12.5
0
LINE
8
0
10
442
20
-12.5
11
461
21
-12.5
0
LINE
8
0
10
422
20
-105.5
11
441
21
-105.5
0
LINE
8
0
10
422
20
-103.5
11
422
21
-105.5
0
LINE
8
0
10
442
20
-12.5
11
442
21
-10.5
0
LINE
8
0
10
423
20
-10.5
11
442
21
-10.5
0
LINE
8
0
10
403
20
-103.5
11
422
21
-103.5
0
LINE
8
0
10
403
20
-101.5
11
403
21
-103.5
0
LINE
8
0
10
423
20
-10.5
11
423
21
-8.5
0
LINE
8
0
10
404
20
-8.5
11
423
21
-8.5
0
LINE
8
0
10
384
20
-101.5
11
403
21
-101.5
0
LINE
8
0
10
384
20
-92.5
11
384
21
-101.5
0
LINE
8
0
10
384
20
-92.5
11
374
21
-92.5
0
LINE
8
0
10
374
20
-92.5
11
374
21
-87.5
0
LINE
8
0
10
404
20
-8.5
11
404
21
-6.5
0
LINE
8
0
10
404
20
-6.5
11
384
21
-6.5
0
LINE
8
0
10
384
20
-6.5
11
384
21
-11.5
0
LINE
8
0
10
365
20
-87.5
11
374
21
-87.5
0
LINE
8
0
10
365
20
-87.5
11
365
21
-11.5
0
LINE
8
0
10
365
20
-11.5
11
384
21
-11.5
0
LINE
8
0
10
305.3179523
20
-96.446932
11
315.4118951
21
-134.1180392
0
LINE
8
0
10
315.4118951
20
-134.1180392
11
324.1052276
21
-131.7886678
0
LINE
8
0
10
338.5061822
20
-108.2596962
11
339.4120488
21
-111.6404365
0
LINE
8
0
10
325.2699132
20
-136.1353339
11
371.6343529
21
-123.7120197
0
LINE
8
0
10
339.4120488
20
-111.6404365
11
366.457972
21
-104.3935032
0
LINE
8
0
10
325.2699132
20
-136.1353339
11
324.1052276
21
-131.7886678
0
LINE
8
0
10
371.6343529
20
-123.7120197
11
366.457972
21
-104.3935032
0
LINE
8
0
10
305.3179523
20
-96.446932
11
360.3757244
21
-81.6942463
0
LINE
8
0
10
338.5061822
20
-108.2596962
11
365.5521053
21
-101.0127628
0
LINE
8
0
10
365.5521053
20
-101.0127628
11
360.3757244
21
-81.6942463
0
ENDSEC
0
EOF