0
SECTION
2
HEADER
9
$INSUNITS
70
4
0
ENDSEC
0
SECTION
2
TABLES
0
TABLE
2
LTYPE
0
LTYPE
72
65
70
64
2
CONTINUOUS
3
______
73
0
40
0
0
ENDTAB
0
TABLE
2
LAYER
0
ENDTAB
0
ENDSEC
0
SECTION
2
ENTITIES
0
LINE
8
0
10
79.995
20
-100.005
11
79.995
21
-4.995
0
LINE
8
0
10
79.995
20
-4.995
11
136.995
21
1.005
0
LINE
8
0
10
136.995
20
1.005
11
156.005
21
3.005
0
LINE
8
0
10
156.005
20
3.005
11
215.005
21
-1.995
0
LINE
8
0
10
215.005
20
-58.995
11
215.005
21
-1.995
0
LINE
8
0
10
215.005
20
-58.995
11
216.005
21
-72.995
0
LINE
8
0
10
216.005
20
-72.995
11
239.7378166
21
-79.4052072
0
LINE
8
0
10
239.7378166
20
-79.4052072
11
244.5847833
21
-79.6686718
0
LINE
8
0
10
244.5847833
20
-79.6686718
11
281.2899647
21
-89.5037955
0
LINE
8
0
10
281.2899647
20
-89.5037955
11
261.311743
21
-145.7495799
0
LINE
8
0
10
261.311743
20
-145.7495799
11
241.6650571
21
-145.6616471
0
LINE
8
0
10
241.6650571
20
-145.6616471
11
196
21
-130
0
LINE
8
0
10
196
20
-130
11
177.005
21
-113.005
0
LINE
8
0
10
139.005
20
-117.005
11
177.005
21
-113.005
0
LINE
8
0
10
139.005
20
-117.005
11
99.005
21
-117.005
0
LINE
8
0
10
99.005
20
-117.005
11
79.995
21
-100.005
0
LINE
8
0
10
91.25
20
-89.25
11
108.75
21
-89.25
0
LINE
8
0
10
108.75
20
-89.25
11
108.75
21
-72.75
0
LINE
8
0
10
108.75
20
-72.75
11
91.25
21
-72.75
0
LINE
8
0
10
91.25
20
-72.75
11
91.25
21
-89.25
0
LINE
8
0
10
91.25
20
-70.25
11
108.75
21
-70.25
0
LINE
8
0
10
108.75
20
-70.25
11
108.75
21
-53.75
0
LINE
8
0
10
108.75
20
-53.75
11
91.25
21
-53.75
0
LINE
8
0
10
91.25
20
-53.75
11
91.25
21
-70.25
0
LINE
8
0
10
91.25
20
-51.25
11
108.75
21
-51.25
0
LINE
8
0
10
108.75
20
-51.25
11
108.75
21
-34.75
0
LINE
8
0
10
108.75
20
-34.75
11
91.25
21
-34.75
0
LINE
8
0
10
91.25
20
-34.75
11
91.25
21
-51.25
0
LINE
8
0
10
91.25
20
-32.25
11
108.75
21
-32.25
0
LINE
8
0
10
108.75
20
-32.25
11
108.75
21
-15.75
0
LINE
8
0
10
108.75
20
-15.75
11
91.25
21
-15.75
0
LINE
8
0
10
91.25
20
-15.75
11
91.25
21
-32.25
0
LINE
8
0
10
110.25
20
-106.25
11
127.75
21
-106.25
0
LINE
8
0
10
127.75
20
-106.25
11
127.75
21
-89.75
0
LINE
8
0
10
127.75
20
-89.75
11
110.25
21
-89.75
0
LINE
8
0
10
110.25
20
-89.75
11
110.25
21
-106.25
0
LINE
8
0
10
110.25
20
-87.25
11
127.75
21
-87.25
0
LINE
8
0
10
127.75
20
-87.25
11
127.75
21
-70.75
0
LINE
8
0
10
127.75
20
-70.75
11
110.25
21
-70.75
0
LINE
8
0
10
110.25
20
-70.75
11
110.25
21
-87.25
0
LINE
8
0
10
110.25
20
-68.25
11
127.75
21
-68.25
0
LINE
8
0
10
127.75
20
-68.25
11
127.75
21
-51.75
0
LINE
8
0
10
127.75
20
-51.75
11
110.25
21
-51.75
0
LINE
8
0
10
110.25
20
-51.75
11
110.25
21
-68.25
0
LINE
8
0
10
110.25
20
-49.25
11
127.75
21
-49.25
0
LINE
8
0
10
127.75
20
-49.25
11
127.75
21
-32.75
0
LINE
8
0
10
127.75
20
-32.75
11
110.25
21
-32.75
0
LINE
8
0
10
110.25
20
-32.75
11
110.25
21
-49.25
0
LINE
8
0
10
110.25
20
-30.25
11
127.75
21
-30.25
0
LINE
8
0
10
127.75
20
-30.25
11
127.75
21
-13.75
0
LINE
8
0
10
127.75
20
-13.75
11
110.25
21
-13.75
0
LINE
8
0
10
110.25
20
-13.75
11
110.25
21
-30.25
0
LINE
8
0
10
129.25
20
-104.25
11
146.75
21
-104.25
0
LINE
8
0
10
146.75
20
-104.25
11
146.75
21
-87.75
0
LINE
8
0
10
146.75
20
-87.75
11
129.25
21
-87.75
0
LINE
8
0
10
129.25
20
-87.75
11
129.25
21
-104.25
0
LINE
8
0
10
129.25
20
-85.25
11
146.75
21
-85.25
0
LINE
8
0
10
146.75
20
-85.25
11
146.75
21
-68.75
0
LINE
8
0
10
146.75
20
-68.75
11
129.25
21
-68.75
0
LINE
8
0
10
129.25
20
-68.75
11
129.25
21
-85.25
0
LINE
8
0
10
129.25
20
-66.25
11
146.75
21
-66.25
0
LINE
8
0
10
146.75
20
-66.25
11
146.75
21
-49.75
0
LINE
8
0
10
146.75
20
-49.75
11
129.25
21
-49.75
0
LINE
8
0
10
129.25
20
-49.75
11
129.25
21
-66.25
0
LINE
8
0
10
129.25
20
-47.25
11
146.75
21
-47.25
0
LINE
8
0
10
146.75
20
-47.25
11
146.75
21
-30.75
0
LINE
8
0
10
146.75
20
-30.75
11
129.25
21
-30.75
0
LINE
8
0
10
129.25
20
-30.75
11
129.25
21
-47.25
0
LINE
8
0
10
129.25
20
-28.25
11
146.75
21
-28.25
0
LINE
8
0
10
146.75
20
-28.25
11
146.75
21
-11.75
0
LINE
8
0
10
146.75
20
-11.75
11
129.25
21
-11.75
0
LINE
8
0
10
129.25
20
-11.75
11
129.25
21
-28.25
0
LINE
8
0
10
148.25
20
-102.25
11
165.75
21
-102.25
0
LINE
8
0
10
165.75
20
-102.25
11
165.75
21
-85.75
0
LINE
8
0
10
165.75
20
-85.75
11
148.25
21
-85.75
0
LINE
8
0
10
148.25
20
-85.75
11
148.25
21
-102.25
0
LINE
8
0
10
148.25
20
-83.25
11
165.75
21
-83.25
0
LINE
8
0
10
165.75
20
-83.25
11
165.75
21
-66.75
0
LINE
8
0
10
165.75
20
-66.75
11
148.25
21
-66.75
0
LINE
8
0
10
148.25
20
-66.75
11
148.25
21
-83.25
0
LINE
8
0
10
148.25
20
-64.25
11
165.75
21
-64.25
0
LINE
8
0
10
165.75
20
-64.25
11
165.75
21
-47.75
0
LINE
8
0
10
165.75
20
-47.75
11
148.25
21
-47.75
0
LINE
8
0
10
148.25
20
-47.75
11
148.25
21
-64.25
0
LINE
8
0
10
148.25
20
-45.25
11
165.75
21
-45.25
0
LINE
8
0
10
165.75
20
-45.25
11
165.75
21
-28.75
0
LINE
8
0
10
165.75
20
-28.75
11
148.25
21
-28.75
0
LINE
8
0
10
148.25
20
-28.75
11
148.25
21
-45.25
0
LINE
8
0
10
148.25
20
-26.25
11
165.75
21
-26.25
0
LINE
8
0
10
165.75
20
-26.25
11
165.75
21
-9.75
0
LINE
8
0
10
165.75
20
-9.75
11
148.25
21
-9.75
0
LINE
8
0
10
148.25
20
-9.75
11
148.25
21
-26.25
0
LINE
8
0
10
167.25
20
-100.25
11
184.75
21
-100.25
0
LINE
8
0
10
184.75
20
-100.25
11
184.75
21
-83.75
0
LINE
8
0
10
184.75
20
-83.75
11
167.25
21
-83.75
0
LINE
8
0
10
167.25
20
-83.75
11
167.25
21
-100.25
0
LINE
8
0
10
167.25
20
-81.25
11
184.75
21
-81.25
0
LINE
8
0
10
184.75
20
-81.25
11
184.75
21
-64.75
0
LINE
8
0
10
184.75
20
-64.75
11
167.25
21
-64.75
0
LINE
8
0
10
167.25
20
-64.75
11
167.25
21
-81.25
0
LINE
8
0
10
167.25
20
-62.25
11
184.75
21
-62.25
0
LINE
8
0
10
184.75
20
-62.25
11
184.75
21
-45.75
0
LINE
8
0
10
184.75
20
-45.75
11
167.25
21
-45.75
0
LINE
8
0
10
167.25
20
-45.75
11
167.25
21
-62.25
0
LINE
8
0
10
167.25
20
-43.25
11
184.75
21
-43.25
0
LINE
8
0
10
184.75
20
-43.25
11
184.75
21
-26.75
0
LINE
8
0
10
184.75
20
-26.75
11
167.25
21
-26.75
0
LINE
8
0
10
167.25
20
-26.75
11
167.25
21
-43.25
0
LINE
8
0
10
167.25
20
-24.25
11
184.75
21
-24.25
0
LINE
8
0
10
184.75
20
-24.25
11
184.75
21
-7.75
0
LINE
8
0
10
184.75
20
-7.75
11
167.25
21
-7.75
0
LINE
8
0
10
167.25
20
-7.75
11
167.25
21
-24.25
0
LINE
8
0
10
186.25
20
-86.25
11
203.75
21
-86.25
0
LINE
8
0
10
203.75
20
-86.25
11
203.75
21
-69.75
0
LINE
8
0
10
203.75
20
-69.75
11
186.25
21
-69.75
0
LINE
8
0
10
186.25
20
-69.75
11
186.25
21
-86.25
0
LINE
8
0
10
186.25
20
-67.25
11
203.75
21
-67.25
0
LINE
8
0
10
203.75
20
-67.25
11
203.75
21
-50.75
0
LINE
8
0
10
203.75
20
-50.75
11
186.25
21
-50.75
0
LINE
8
0
10
186.25
20
-50.75
11
186.25
21
-67.25
0
LINE
8
0
10
186.25
20
-48.25
11
203.75
21
-48.25
0
LINE
8
0
10
203.75
20
-48.25
11
203.75
21
-31.75
0
LINE
8
0
10
203.75
20
-31.75
11
186.25
21
-31.75
0
LINE
8
0
10
186.25
20
-31.75
11
186.25
21
-48.25
0
LINE
8
0
10
186.25
20
-29.25
11
203.75
21
-29.25
0
LINE
8
0
10
203.75
20
-29.25
11
203.75
21
-12.75
0
LINE
8
0
10
203.75
20
-12.75
11
186.25
21
-12.75
0
LINE
8
0
10
186.25
20
-12.75
11
186.25
21
-29.25
0
LINE
8
0
10
253.7042214
20
-132.5871081
11
258.2335547
21
-115.6834061
0
LINE
8
0
10
258.2335547
20
-115.6834061
11
242.2957786
21
-111.4128919
0
LINE
8
0
10
242.2957786
20
-111.4128919
11
237.7664453
21
-128.3165939
0
LINE
8
0
10
237.7664453
20
-128.3165939
11
253.7042214
21
-132.5871081
0
LINE
8
0
10
234.186945
20
-132.0162124
11
238.7162783
21
-115.1125104
0
LINE
8
0
10
238.7162783
20
-115.1125104
11
222.7785022
21
-110.8419962
0
LINE
8
0
10
222.7785022
20
-110.8419962
11
218.2491689
21
-127.7456982
0
LINE
8
0
10
218.2491689
20
-127.7456982
11
234.186945
21
-132.0162124
0
LINE
8
0
10
215.8343543
20
-127.0986505
11
220.3636876
21
-110.1949485
0
LINE
8
0
10
220.3636876
20
-110.1949485
11
204.4259115
21
-105.9244343
0
LINE
8
0
10
204.4259115
20
-105.9244343
11
199.8965782
21
-122.8281363
0
LINE
8
0
10
199.8965782
20
-122.8281363
11
215.8343543
21
-127.0986505
0
LINE
8
0
10
258.6217833
20
-114.2345174
11
263.1511166
21
-97.3308154
0
LINE
8
0
10
263.1511166
20
-97.3308154
11
247.2133405
21
-93.0603012
0
LINE
8
0
10
247.2133405
20
-93.0603012
11
242.6840072
21
-109.9640032
0
LINE
8
0
10
242.6840072
20
-109.9640032
11
258.6217833
21
-114.2345174
0
LINE
8
0
10
240.2691926
20
-109.3169555
11
244.7985259
21
-92.4132535
0
LINE
8
0
10
244.7985259
20
-92.4132535
11
228.8607498
21
-88.1427393
0
LINE
8
0
10
228.8607498
20
-88.1427393
11
224.3314165
21
-105.0464413
0
LINE
8
0
10
224.3314165
20
-105.0464413
11
240.2691926
21
-109.3169555
0
LINE
8
0
10
221.9166019
20
-104.3993936
11
226.4459352
21
-87.4956916
0
LINE
8
0
10
226.4459352
20
-87.4956916
11
210.5081591
21
-83.2251774
0
LINE
8
0
10
210.5081591
20
-83.2251774
11
205.9788258
21
-100.1288794
0
LINE
8
0
10
205.9788258
20
-100.1288794
11
221.9166019
21
-104.3993936
0
ENDSEC
0
EOF