0
SECTION
2
HEADER
9
$INSUNITS
70
4
0
ENDSEC
0
SECTION
2
TABLES
0
TABLE
2
LTYPE
0
LTYPE
72
65
70
64
2
CONTINUOUS
3
______
73
0
40
0
0
ENDTAB
0
TABLE
2
LAYER
0
ENDTAB
0
ENDSEC
0
SECTION
2
ENTITIES
0
LINE
8
0
10
-9
20
28
11
9
21
28
0
LINE
8
0
10
9
20
28
11
9
21
10
0
LINE
8
0
10
9
20
10
11
-9
21
10
0
LINE
8
0
10
-9
20
10
11
-9
21
28
0
LINE
8
0
10
-9
20
47
11
9
21
47
0
LINE
8
0
10
9
20
47
11
9
21
29
0
LINE
8
0
10
9
20
29
11
-9
21
29
0
LINE
8
0
10
-9
20
29
11
-9
21
47
0
LINE
8
0
10
-9
20
66
11
9
21
66
0
LINE
8
0
10
9
20
66
11
9
21
48
0
LINE
8
0
10
9
20
48
11
-9
21
48
0
LINE
8
0
10
-9
20
48
11
-9
21
66
0
LINE
8
0
10
-9
20
85
11
9
21
85
0
LINE
8
0
10
9
20
85
11
9
21
67
0
LINE
8
0
10
9
20
67
11
-9
21
67
0
LINE
8
0
10
-9
20
67
11
-9
21
85
0
LINE
8
0
10
10
20
11
11
28
21
11
0
LINE
8
0
10
28
20
11
11
28
21
-7
0
LINE
8
0
10
28
20
-7
11
10
21
-7
0
LINE
8
0
10
10
20
-7
11
10
21
11
0
LINE
8
0
10
10
20
30
11
28
21
30
0
LINE
8
0
10
28
20
30
11
28
21
12
0
LINE
8
0
10
28
20
12
11
10
21
12
0
LINE
8
0
10
10
20
12
11
10
21
30
0
LINE
8
0
10
10
20
49
11
28
21
49
0
LINE
8
0
10
28
20
49
11
28
21
31
0
LINE
8
0
10
28
20
31
11
10
21
31
0
LINE
8
0
10
10
20
31
11
10
21
49
0
LINE
8
0
10
10
20
68
11
28
21
68
0
LINE
8
0
10
28
20
68
11
28
21
50
0
LINE
8
0
10
28
20
50
11
10
21
50
0
LINE
8
0
10
10
20
50
11
10
21
68
0
LINE
8
0
10
10
20
87
11
28
21
87
0
LINE
8
0
10
28
20
87
11
28
21
69
0
LINE
8
0
10
28
20
69
11
10
21
69
0
LINE
8
0
10
10
20
69
11
10
21
87
0
LINE
8
0
10
29
20
13
11
47
21
13
0
LINE
8
0
10
47
20
13
11
47
21
-5
0
LINE
8
0
10
47
20
-5
11
29
21
-5
0
LINE
8
0
10
29
20
-5
11
29
21
13
0
LINE
8
0
10
29
20
32
11
47
21
32
0
LINE
8
0
10
47
20
32
11
47
21
14
0
LINE
8
0
10
47
20
14
11
29
21
14
0
LINE
8
0
10
29
20
14
11
29
21
32
0
LINE
8
0
10
29
20
51
11
47
21
51
0
LINE
8
0
10
47
20
51
11
47
21
33
0
LINE
8
0
10
47
20
33
11
29
21
33
0
LINE
8
0
10
29
20
33
11
29
21
51
0
LINE
8
0
10
29
20
70
11
47
21
70
0
LINE
8
0
10
47
20
70
11
47
21
52
0
LINE
8
0
10
47
20
52
11
29
21
52
0
LINE
8
0
10
29
20
52
11
29
21
70
0
LINE
8
0
10
29
20
89
11
47
21
89
0
LINE
8
0
10
47
20
89
11
47
21
71
0
LINE
8
0
10
47
20
71
11
29
21
71
0
LINE
8
0
10
29
20
71
11
29
21
89
0
LINE
8
0
10
48
20
15
11
66
21
15
0
LINE
8
0
10
66
20
15
11
66
21
-3
0
LINE
8
0
10
66
20
-3
11
48
21
-3
0
LINE
8
0
10
48
20
-3
11
48
21
15
0
LINE
8
0
10
48
20
34
11
66
21
34
0
LINE
8
0
10
66
20
34
11
66
21
16
0
LINE
8
0
10
66
20
16
11
48
21
16
0
LINE
8
0
10
48
20
16
11
48
21
34
0
LINE
8
0
10
48
20
53
11
66
21
53
0
LINE
8
0
10
66
20
53
11
66
21
35
0
LINE
8
0
10
66
20
35
11
48
21
35
0
LINE
8
0
10
48
20
35
11
48
21
53
0
LINE
8
0
10
48
20
72
11
66
21
72
0
LINE
8
0
10
66
20
72
11
66
21
54
0
LINE
8
0
10
66
20
54
11
48
21
54
0
LINE
8
0
10
48
20
54
11
48
21
72
0
LINE
8
0
10
48
20
91
11
66
21
91
0
LINE
8
0
10
66
20
91
11
66
21
73
0
LINE
8
0
10
66
20
73
11
48
21
73
0
LINE
8
0
10
48
20
73
11
48
21
91
0
LINE
8
0
10
67
20
17
11
85
21
17
0
LINE
8
0
10
85
20
17
11
85
21
-1
0
LINE
8
0
10
85
20
-1
11
67
21
-1
0
LINE
8
0
10
67
20
-1
11
67
21
17
0
LINE
8
0
10
67
20
36
11
85
21
36
0
LINE
8
0
10
85
20
36
11
85
21
18
0
LINE
8
0
10
85
20
18
11
67
21
18
0
LINE
8
0
10
67
20
18
11
67
21
36
0
LINE
8
0
10
67
20
55
11
85
21
55
0
LINE
8
0
10
85
20
55
11
85
21
37
0
LINE
8
0
10
85
20
37
11
67
21
37
0
LINE
8
0
10
67
20
37
11
67
21
55
0
LINE
8
0
10
67
20
74
11
85
21
74
0
LINE
8
0
10
85
20
74
11
85
21
56
0
LINE
8
0
10
85
20
56
11
67
21
56
0
LINE
8
0
10
67
20
56
11
67
21
74
0
LINE
8
0
10
67
20
93
11
85
21
93
0
LINE
8
0
10
85
20
93
11
85
21
75
0
LINE
8
0
10
85
20
75
11
67
21
75
0
LINE
8
0
10
67
20
75
11
67
21
93
0
LINE
8
0
10
86
20
31
11
104
21
31
0
LINE
8
0
10
104
20
31
11
104
21
13
0
LINE
8
0
10
104
20
13
11
86
21
13
0
LINE
8
0
10
86
20
13
11
86
21
31
0
LINE
8
0
10
86
20
50
11
104
21
50
0
LINE
8
0
10
104
20
50
11
104
21
32
0
LINE
8
0
10
104
20
32
11
86
21
32
0
LINE
8
0
10
86
20
32
11
86
21
50
0
LINE
8
0
10
86
20
69
11
104
21
69
0
LINE
8
0
10
104
20
69
11
104
21
51
0
LINE
8
0
10
104
20
51
11
86
21
51
0
LINE
8
0
10
86
20
51
11
86
21
69
0
LINE
8
0
10
86
20
88
11
104
21
88
0
LINE
8
0
10
104
20
88
11
104
21
70
0
LINE
8
0
10
104
20
70
11
86
21
70
0
LINE
8
0
10
86
20
70
11
86
21
88
0
LINE
8
0
10
136.9772962
20
-28.363961
11
141.636039
21
-10.9772962
0
LINE
8
0
10
141.636039
20
-10.9772962
11
159.0227038
21
-15.636039
0
LINE
8
0
10
159.0227038
20
-15.636039
11
154.363961
21
-33.0227038
0
LINE
8
0
10
154.363961
20
-33.0227038
11
136.9772962
21
-28.363961
0
LINE
8
0
10
116.2953341
20
-32.1397315
11
123.2834483
21
-6.0597342
0
LINE
8
0
10
123.2834483
20
-6.0597342
11
140.6701131
21
-10.7184771
0
LINE
8
0
10
140.6701131
20
-10.7184771
11
133.6819989
21
-36.7984744
0
LINE
8
0
10
133.6819989
20
-36.7984744
11
116.2953341
21
-32.1397315
0
LINE
8
0
10
97.9427434
20
-27.2221696
11
104.9308576
21
-1.1421723
0
LINE
8
0
10
104.9308576
20
-1.1421723
11
122.3175224
21
-5.8009152
0
LINE
8
0
10
122.3175224
20
-5.8009152
11
115.3294082
21
-31.8809125
0
LINE
8
0
10
115.3294082
20
-31.8809125
11
97.9427434
21
-27.2221696
0
LINE
8
0
10
141.8948581
20
-10.0113703
11
146.5536009
21
7.3752945
0
LINE
8
0
10
146.5536009
20
7.3752945
11
163.9402657
21
2.7165517
0
LINE
8
0
10
163.9402657
20
2.7165517
11
159.2815229
21
-14.6701131
0
LINE
8
0
10
159.2815229
20
-14.6701131
11
141.8948581
21
-10.0113703
0
LINE
8
0
10
123.5422674
20
-5.0938084
11
128.2010102
21
12.2928564
0
LINE
8
0
10
128.2010102
20
12.2928564
11
145.587675
21
7.6341136
0
LINE
8
0
10
145.587675
20
7.6341136
11
140.9289322
21
-9.7525512
0
LINE
8
0
10
140.9289322
20
-9.7525512
11
123.5422674
21
-5.0938084
0
LINE
8
0
10
105.1896767
20
-0.1762465
11
109.8484195
21
17.2104183
0
LINE
8
0
10
109.8484195
20
17.2104183
11
127.2350843
21
12.5516755
0
LINE
8
0
10
127.2350843
20
12.5516755
11
122.5763415
21
-4.8349893
0
LINE
8
0
10
122.5763415
20
-4.8349893
11
105.1896767
21
-0.1762465
0
LINE
8
0
10
361
20
28
11
379
21
28
0
LINE
8
0
10
379
20
28
11
379
21
10
0
LINE
8
0
10
379
20
10
11
361
21
10
0
LINE
8
0
10
361
20
10
11
361
21
28
0
LINE
8
0
10
361
20
47
11
379
21
47
0
LINE
8
0
10
379
20
47
11
379
21
29
0
LINE
8
0
10
379
20
29
11
361
21
29
0
LINE
8
0
10
361
20
29
11
361
21
47
0
LINE
8
0
10
361
20
66
11
379
21
66
0
LINE
8
0
10
379
20
66
11
379
21
48
0
LINE
8
0
10
379
20
48
11
361
21
48
0
LINE
8
0
10
361
20
48
11
361
21
66
0
LINE
8
0
10
361
20
85
11
379
21
85
0
LINE
8
0
10
379
20
85
11
379
21
67
0
LINE
8
0
10
379
20
67
11
361
21
67
0
LINE
8
0
10
361
20
67
11
361
21
85
0
LINE
8
0
10
342
20
11
11
360
21
11
0
LINE
8
0
10
360
20
11
11
360
21
-7
0
LINE
8
0
10
360
20
-7
11
342
21
-7
0
LINE
8
0
10
342
20
-7
11
342
21
11
0
LINE
8
0
10
342
20
30
11
360
21
30
0
LINE
8
0
10
360
20
30
11
360
21
12
0
LINE
8
0
10
360
20
12
11
342
21
12
0
LINE
8
0
10
342
20
12
11
342
21
30
0
LINE
8
0
10
342
20
49
11
360
21
49
0
LINE
8
0
10
360
20
49
11
360
21
31
0
LINE
8
0
10
360
20
31
11
342
21
31
0
LINE
8
0
10
342
20
31
11
342
21
49
0
LINE
8
0
10
342
20
68
11
360
21
68
0
LINE
8
0
10
360
20
68
11
360
21
50
0
LINE
8
0
10
360
20
50
11
342
21
50
0
LINE
8
0
10
342
20
50
11
342
21
68
0
LINE
8
0
10
342
20
87
11
360
21
87
0
LINE
8
0
10
360
20
87
11
360
21
69
0
LINE
8
0
10
360
20
69
11
342
21
69
0
LINE
8
0
10
342
20
69
11
342
21
87
0
LINE
8
0
10
323
20
13
11
341
21
13
0
LINE
8
0
10
341
20
13
11
341
21
-5
0
LINE
8
0
10
341
20
-5
11
323
21
-5
0
LINE
8
0
10
323
20
-5
11
323
21
13
0
LINE
8
0
10
323
20
32
11
341
21
32
0
LINE
8
0
10
341
20
32
11
341
21
14
0
LINE
8
0
10
341
20
14
11
323
21
14
0
LINE
8
0
10
323
20
14
11
323
21
32
0
LINE
8
0
10
323
20
51
11
341
21
51
0
LINE
8
0
10
341
20
51
11
341
21
33
0
LINE
8
0
10
341
20
33
11
323
21
33
0
LINE
8
0
10
323
20
33
11
323
21
51
0
LINE
8
0
10
323
20
70
11
341
21
70
0
LINE
8
0
10
341
20
70
11
341
21
52
0
LINE
8
0
10
341
20
52
11
323
21
52
0
LINE
8
0
10
323
20
52
11
323
21
70
0
LINE
8
0
10
323
20
89
11
341
21
89
0
LINE
8
0
10
341
20
89
11
341
21
71
0
LINE
8
0
10
341
20
71
11
323
21
71
0
LINE
8
0
10
323
20
71
11
323
21
89
0
LINE
8
0
10
304
20
15
11
322
21
15
0
LINE
8
0
10
322
20
15
11
322
21
-3
0
LINE
8
0
10
322
20
-3
11
304
21
-3
0
LINE
8
0
10
304
20
-3
11
304
21
15
0
LINE
8
0
10
304
20
34
11
322
21
34
0
LINE
8
0
10
322
20
34
11
322
21
16
0
LINE
8
0
10
322
20
16
11
304
21
16
0
LINE
8
0
10
304
20
16
11
304
21
34
0
LINE
8
0
10
304
20
53
11
322
21
53
0
LINE
8
0
10
322
20
53
11
322
21
35
0
LINE
8
0
10
322
20
35
11
304
21
35
0
LINE
8
0
10
304
20
35
11
304
21
53
0
LINE
8
0
10
304
20
72
11
322
21
72
0
LINE
8
0
10
322
20
72
11
322
21
54
0
LINE
8
0
10
322
20
54
11
304
21
54
0
LINE
8
0
10
304
20
54
11
304
21
72
0
LINE
8
0
10
304
20
91
11
322
21
91
0
LINE
8
0
10
322
20
91
11
322
21
73
0
LINE
8
0
10
322
20
73
11
304
21
73
0
LINE
8
0
10
304
20
73
11
304
21
91
0
LINE
8
0
10
285
20
17
11
303
21
17
0
LINE
8
0
10
303
20
17
11
303
21
-1
0
LINE
8
0
10
303
20
-1
11
285
21
-1
0
LINE
8
0
10
285
20
-1
11
285
21
17
0
LINE
8
0
10
285
20
36
11
303
21
36
0
LINE
8
0
10
303
20
36
11
303
21
18
0
LINE
8
0
10
303
20
18
11
285
21
18
0
LINE
8
0
10
285
20
18
11
285
21
36
0
LINE
8
0
10
285
20
55
11
303
21
55
0
LINE
8
0
10
303
20
55
11
303
21
37
0
LINE
8
0
10
303
20
37
11
285
21
37
0
LINE
8
0
10
285
20
37
11
285
21
55
0
LINE
8
0
10
285
20
74
11
303
21
74
0
LINE
8
0
10
303
20
74
11
303
21
56
0
LINE
8
0
10
303
20
56
11
285
21
56
0
LINE
8
0
10
285
20
56
11
285
21
74
0
LINE
8
0
10
285
20
93
11
303
21
93
0
LINE
8
0
10
303
20
93
11
303
21
75
0
LINE
8
0
10
303
20
75
11
285
21
75
0
LINE
8
0
10
285
20
75
11
285
21
93
0
LINE
8
0
10
266
20
31
11
284
21
31
0
LINE
8
0
10
284
20
31
11
284
21
13
0
LINE
8
0
10
284
20
13
11
266
21
13
0
LINE
8
0
10
266
20
13
11
266
21
31
0
LINE
8
0
10
266
20
50
11
284
21
50
0
LINE
8
0
10
284
20
50
11
284
21
32
0
LINE
8
0
10
284
20
32
11
266
21
32
0
LINE
8
0
10
266
20
32
11
266
21
50
0
LINE
8
0
10
266
20
69
11
284
21
69
0
LINE
8
0
10
284
20
69
11
284
21
51
0
LINE
8
0
10
284
20
51
11
266
21
51
0
LINE
8
0
10
266
20
51
11
266
21
69
0
LINE
8
0
10
266
20
88
11
284
21
88
0
LINE
8
0
10
284
20
88
11
284
21
70
0
LINE
8
0
10
284
20
70
11
266
21
70
0
LINE
8
0
10
266
20
70
11
266
21
88
0
LINE
8
0
10
228.363961
20
-10.9772962
11
233.0227038
21
-28.363961
0
LINE
8
0
10
233.0227038
20
-28.363961
11
215.636039
21
-33.0227038
0
LINE
8
0
10
215.636039
20
-33.0227038
11
210.9772962
21
-15.636039
0
LINE
8
0
10
210.9772962
20
-15.636039
11
228.363961
21
-10.9772962
0
LINE
8
0
10
246.7165517
20
-6.0597342
11
253.7046659
21
-32.1397315
0
LINE
8
0
10
253.7046659
20
-32.1397315
11
236.3180011
21
-36.7984744
0
LINE
8
0
10
236.3180011
20
-36.7984744
11
229.3298869
21
-10.7184771
0
LINE
8
0
10
229.3298869
20
-10.7184771
11
246.7165517
21
-6.0597342
0
LINE
8
0
10
265.0691424
20
-1.1421723
11
272.0572566
21
-27.2221696
0
LINE
8
0
10
272.0572566
20
-27.2221696
11
254.6705918
21
-31.8809125
0
LINE
8
0
10
254.6705918
20
-31.8809125
11
247.6824776
21
-5.8009152
0
LINE
8
0
10
247.6824776
20
-5.8009152
11
265.0691424
21
-1.1421723
0
LINE
8
0
10
223.4463991
20
7.3752945
11
228.1051419
21
-10.0113703
0
LINE
8
0
10
228.1051419
20
-10.0113703
11
210.7184771
21
-14.6701131
0
LINE
8
0
10
210.7184771
20
-14.6701131
11
206.0597343
21
2.7165517
0
LINE
8
0
10
206.0597343
20
2.7165517
11
223.4463991
21
7.3752945
0
LINE
8
0
10
241.7989898
20
12.2928564
11
246.4577326
21
-5.0938084
0
LINE
8
0
10
246.4577326
20
-5.0938084
11
229.0710678
21
-9.7525512
0
LINE
8
0
10
229.0710678
20
-9.7525512
11
224.412325
21
7.6341136
0
LINE
8
0
10
224.412325
20
7.6341136
11
241.7989898
21
12.2928564
0
LINE
8
0
10
260.1515805
20
17.2104183
11
264.8103233
21
-0.1762465
0
LINE
8
0
10
264.8103233
20
-0.1762465
11
247.4236585
21
-4.8349893
0
LINE
8
0
10
247.4236585
20
-4.8349893
11
242.7649157
21
12.5516755
0
LINE
8
0
10
242.7649157
20
12.5516755
11
260.1515805
21
17.2104183
0
ENDSEC
0
EOF