0
SECTION
2
HEADER
9
$INSUNITS
70
4
0
ENDSEC
0
SECTION
2
TABLES
0
TABLE
2
LTYPE
0
LTYPE
72
65
70
64
2
CONTINUOUS
3
______
73
0
40
0
0
ENDTAB
0
TABLE
2
LAYER
0
ENDTAB
0
ENDSEC
0
SECTION
2
ENTITIES
0
LINE
8
0
10
-8.75
20
10.75
11
8.75
21
10.75
0
LINE
8
0
10
8.75
20
10.75
11
8.75
21
27.25
0
LINE
8
0
10
8.75
20
27.25
11
-8.75
21
27.25
0
LINE
8
0
10
-8.75
20
27.25
11
-8.75
21
10.75
0
LINE
8
0
10
-8.75
20
29.75
11
8.75
21
29.75
0
LINE
8
0
10
8.75
20
29.75
11
8.75
21
46.25
0
LINE
8
0
10
8.75
20
46.25
11
-8.75
21
46.25
0
LINE
8
0
10
-8.75
20
46.25
11
-8.75
21
29.75
0
LINE
8
0
10
-8.75
20
48.75
11
8.75
21
48.75
0
LINE
8
0
10
8.75
20
48.75
11
8.75
21
65.25
0
LINE
8
0
10
8.75
20
65.25
11
-8.75
21
65.25
0
LINE
8
0
10
-8.75
20
65.25
11
-8.75
21
48.75
0
LINE
8
0
10
-8.75
20
67.75
11
8.75
21
67.75
0
LINE
8
0
10
8.75
20
67.75
11
8.75
21
84.25
0
LINE
8
0
10
8.75
20
84.25
11
-8.75
21
84.25
0
LINE
8
0
10
-8.75
20
84.25
11
-8.75
21
67.75
0
LINE
8
0
10
10.25
20
-6.25
11
27.75
21
-6.25
0
LINE
8
0
10
27.75
20
-6.25
11
27.75
21
10.25
0
LINE
8
0
10
27.75
20
10.25
11
10.25
21
10.25
0
LINE
8
0
10
10.25
20
10.25
11
10.25
21
-6.25
0
LINE
8
0
10
10.25
20
12.75
11
27.75
21
12.75
0
LINE
8
0
10
27.75
20
12.75
11
27.75
21
29.25
0
LINE
8
0
10
27.75
20
29.25
11
10.25
21
29.25
0
LINE
8
0
10
10.25
20
29.25
11
10.25
21
12.75
0
LINE
8
0
10
10.25
20
31.75
11
27.75
21
31.75
0
LINE
8
0
10
27.75
20
31.75
11
27.75
21
48.25
0
LINE
8
0
10
27.75
20
48.25
11
10.25
21
48.25
0
LINE
8
0
10
10.25
20
48.25
11
10.25
21
31.75
0
LINE
8
0
10
10.25
20
50.75
11
27.75
21
50.75
0
LINE
8
0
10
27.75
20
50.75
11
27.75
21
67.25
0
LINE
8
0
10
27.75
20
67.25
11
10.25
21
67.25
0
LINE
8
0
10
10.25
20
67.25
11
10.25
21
50.75
0
LINE
8
0
10
10.25
20
69.75
11
27.75
21
69.75
0
LINE
8
0
10
27.75
20
69.75
11
27.75
21
86.25
0
LINE
8
0
10
27.75
20
86.25
11
10.25
21
86.25
0
LINE
8
0
10
10.25
20
86.25
11
10.25
21
69.75
0
LINE
8
0
10
29.25
20
-4.25
11
46.75
21
-4.25
0
LINE
8
0
10
46.75
20
-4.25
11
46.75
21
12.25
0
LINE
8
0
10
46.75
20
12.25
11
29.25
21
12.25
0
LINE
8
0
10
29.25
20
12.25
11
29.25
21
-4.25
0
LINE
8
0
10
29.25
20
14.75
11
46.75
21
14.75
0
LINE
8
0
10
46.75
20
14.75
11
46.75
21
31.25
0
LINE
8
0
10
46.75
20
31.25
11
29.25
21
31.25
0
LINE
8
0
10
29.25
20
31.25
11
29.25
21
14.75
0
LINE
8
0
10
29.25
20
33.75
11
46.75
21
33.75
0
LINE
8
0
10
46.75
20
33.75
11
46.75
21
50.25
0
LINE
8
0
10
46.75
20
50.25
11
29.25
21
50.25
0
LINE
8
0
10
29.25
20
50.25
11
29.25
21
33.75
0
LINE
8
0
10
29.25
20
52.75
11
46.75
21
52.75
0
LINE
8
0
10
46.75
20
52.75
11
46.75
21
69.25
0
LINE
8
0
10
46.75
20
69.25
11
29.25
21
69.25
0
LINE
8
0
10
29.25
20
69.25
11
29.25
21
52.75
0
LINE
8
0
10
29.25
20
71.75
11
46.75
21
71.75
0
LINE
8
0
10
46.75
20
71.75
11
46.75
21
88.25
0
LINE
8
0
10
46.75
20
88.25
11
29.25
21
88.25
0
LINE
8
0
10
29.25
20
88.25
11
29.25
21
71.75
0
LINE
8
0
10
48.25
20
-2.25
11
65.75
21
-2.25
0
LINE
8
0
10
65.75
20
-2.25
11
65.75
21
14.25
0
LINE
8
0
10
65.75
20
14.25
11
48.25
21
14.25
0
LINE
8
0
10
48.25
20
14.25
11
48.25
21
-2.25
0
LINE
8
0
10
48.25
20
16.75
11
65.75
21
16.75
0
LINE
8
0
10
65.75
20
16.75
11
65.75
21
33.25
0
LINE
8
0
10
65.75
20
33.25
11
48.25
21
33.25
0
LINE
8
0
10
48.25
20
33.25
11
48.25
21
16.75
0
LINE
8
0
10
48.25
20
35.75
11
65.75
21
35.75
0
LINE
8
0
10
65.75
20
35.75
11
65.75
21
52.25
0
LINE
8
0
10
65.75
20
52.25
11
48.25
21
52.25
0
LINE
8
0
10
48.25
20
52.25
11
48.25
21
35.75
0
LINE
8
0
10
48.25
20
54.75
11
65.75
21
54.75
0
LINE
8
0
10
65.75
20
54.75
11
65.75
21
71.25
0
LINE
8
0
10
65.75
20
71.25
11
48.25
21
71.25
0
LINE
8
0
10
48.25
20
71.25
11
48.25
21
54.75
0
LINE
8
0
10
48.25
20
73.75
11
65.75
21
73.75
0
LINE
8
0
10
65.75
20
73.75
11
65.75
21
90.25
0
LINE
8
0
10
65.75
20
90.25
11
48.25
21
90.25
0
LINE
8
0
10
48.25
20
90.25
11
48.25
21
73.75
0
LINE
8
0
10
67.25
20
-0.25
11
84.75
21
-0.25
0
LINE
8
0
10
84.75
20
-0.25
11
84.75
21
16.25
0
LINE
8
0
10
84.75
20
16.25
11
67.25
21
16.25
0
LINE
8
0
10
67.25
20
16.25
11
67.25
21
-0.25
0
LINE
8
0
10
67.25
20
18.75
11
84.75
21
18.75
0
LINE
8
0
10
84.75
20
18.75
11
84.75
21
35.25
0
LINE
8
0
10
84.75
20
35.25
11
67.25
21
35.25
0
LINE
8
0
10
67.25
20
35.25
11
67.25
21
18.75
0
LINE
8
0
10
67.25
20
37.75
11
84.75
21
37.75
0
LINE
8
0
10
84.75
20
37.75
11
84.75
21
54.25
0
LINE
8
0
10
84.75
20
54.25
11
67.25
21
54.25
0
LINE
8
0
10
67.25
20
54.25
11
67.25
21
37.75
0
LINE
8
0
10
67.25
20
56.75
11
84.75
21
56.75
0
LINE
8
0
10
84.75
20
56.75
11
84.75
21
73.25
0
LINE
8
0
10
84.75
20
73.25
11
67.25
21
73.25
0
LINE
8
0
10
67.25
20
73.25
11
67.25
21
56.75
0
LINE
8
0
10
67.25
20
75.75
11
84.75
21
75.75
0
LINE
8
0
10
84.75
20
75.75
11
84.75
21
92.25
0
LINE
8
0
10
84.75
20
92.25
11
67.25
21
92.25
0
LINE
8
0
10
67.25
20
92.25
11
67.25
21
75.75
0
LINE
8
0
10
86.25
20
13.75
11
103.75
21
13.75
0
LINE
8
0
10
103.75
20
13.75
11
103.75
21
30.25
0
LINE
8
0
10
103.75
20
30.25
11
86.25
21
30.25
0
LINE
8
0
10
86.25
20
30.25
11
86.25
21
13.75
0
LINE
8
0
10
86.25
20
32.75
11
103.75
21
32.75
0
LINE
8
0
10
103.75
20
32.75
11
103.75
21
49.25
0
LINE
8
0
10
103.75
20
49.25
11
86.25
21
49.25
0
LINE
8
0
10
86.25
20
49.25
11
86.25
21
32.75
0
LINE
8
0
10
86.25
20
51.75
11
103.75
21
51.75
0
LINE
8
0
10
103.75
20
51.75
11
103.75
21
68.25
0
LINE
8
0
10
103.75
20
68.25
11
86.25
21
68.25
0
LINE
8
0
10
86.25
20
68.25
11
86.25
21
51.75
0
LINE
8
0
10
86.25
20
70.75
11
103.75
21
70.75
0
LINE
8
0
10
103.75
20
70.75
11
103.75
21
87.25
0
LINE
8
0
10
103.75
20
87.25
11
86.25
21
87.25
0
LINE
8
0
10
86.25
20
87.25
11
86.25
21
70.75
0
LINE
8
0
10
153.7042214
20
-32.5871081
11
158.2335547
21
-15.6834061
0
LINE
8
0
10
158.2335547
20
-15.6834061
11
142.2957786
21
-11.4128919
0
LINE
8
0
10
142.2957786
20
-11.4128919
11
137.7664453
21
-28.3165939
0
LINE
8
0
10
137.7664453
20
-28.3165939
11
153.7042214
21
-32.5871081
0
LINE
8
0
10
134.186945
20
-32.0162124
11
138.7162783
21
-15.1125104
0
LINE
8
0
10
138.7162783
20
-15.1125104
11
122.7785022
21
-10.8419962
0
LINE
8
0
10
122.7785022
20
-10.8419962
11
118.2491689
21
-27.7456982
0
LINE
8
0
10
118.2491689
20
-27.7456982
11
134.186945
21
-32.0162124
0
LINE
8
0
10
115.8343543
20
-27.0986505
11
120.3636876
21
-10.1949485
0
LINE
8
0
10
120.3636876
20
-10.1949485
11
104.4259115
21
-5.9244343
0
LINE
8
0
10
104.4259115
20
-5.9244343
11
99.8965782
21
-22.8281363
0
LINE
8
0
10
99.8965782
20
-22.8281363
11
115.8343543
21
-27.0986505
0
LINE
8
0
10
158.6217833
20
-14.2345174
11
163.1511166
21
2.6691846
0
LINE
8
0
10
163.1511166
20
2.6691846
11
147.2133405
21
6.9396988
0
LINE
8
0
10
147.2133405
20
6.9396988
11
142.6840072
21
-9.9640032
0
LINE
8
0
10
142.6840072
20
-9.9640032
11
158.6217833
21
-14.2345174
0
LINE
8
0
10
140.2691926
20
-9.3169555
11
144.7985259
21
7.5867465
0
LINE
8
0
10
144.7985259
20
7.5867465
11
128.8607498
21
11.8572607
0
LINE
8
0
10
128.8607498
20
11.8572607
11
124.3314165
21
-5.0464413
0
LINE
8
0
10
124.3314165
20
-5.0464413
11
140.2691926
21
-9.3169555
0
LINE
8
0
10
121.9166019
20
-4.3993936
11
126.4459352
21
12.5043084
0
LINE
8
0
10
126.4459352
20
12.5043084
11
110.5081591
21
16.7748226
0
LINE
8
0
10
110.5081591
20
16.7748226
11
105.9788258
21
-0.1288794
0
LINE
8
0
10
105.9788258
20
-0.1288794
11
121.9166019
21
-4.3993936
0
LINE
8
0
10
361.25
20
10.75
11
378.75
21
10.75
0
LINE
8
0
10
378.75
20
10.75
11
378.75
21
27.25
0
LINE
8
0
10
378.75
20
27.25
11
361.25
21
27.25
0
LINE
8
0
10
361.25
20
27.25
11
361.25
21
10.75
0
LINE
8
0
10
361.25
20
29.75
11
378.75
21
29.75
0
LINE
8
0
10
378.75
20
29.75
11
378.75
21
46.25
0
LINE
8
0
10
378.75
20
46.25
11
361.25
21
46.25
0
LINE
8
0
10
361.25
20
46.25
11
361.25
21
29.75
0
LINE
8
0
10
361.25
20
48.75
11
378.75
21
48.75
0
LINE
8
0
10
378.75
20
48.75
11
378.75
21
65.25
0
LINE
8
0
10
378.75
20
65.25
11
361.25
21
65.25
0
LINE
8
0
10
361.25
20
65.25
11
361.25
21
48.75
0
LINE
8
0
10
361.25
20
67.75
11
378.75
21
67.75
0
LINE
8
0
10
378.75
20
67.75
11
378.75
21
84.25
0
LINE
8
0
10
378.75
20
84.25
11
361.25
21
84.25
0
LINE
8
0
10
361.25
20
84.25
11
361.25
21
67.75
0
LINE
8
0
10
342.25
20
-6.25
11
359.75
21
-6.25
0
LINE
8
0
10
359.75
20
-6.25
11
359.75
21
10.25
0
LINE
8
0
10
359.75
20
10.25
11
342.25
21
10.25
0
LINE
8
0
10
342.25
20
10.25
11
342.25
21
-6.25
0
LINE
8
0
10
342.25
20
12.75
11
359.75
21
12.75
0
LINE
8
0
10
359.75
20
12.75
11
359.75
21
29.25
0
LINE
8
0
10
359.75
20
29.25
11
342.25
21
29.25
0
LINE
8
0
10
342.25
20
29.25
11
342.25
21
12.75
0
LINE
8
0
10
342.25
20
31.75
11
359.75
21
31.75
0
LINE
8
0
10
359.75
20
31.75
11
359.75
21
48.25
0
LINE
8
0
10
359.75
20
48.25
11
342.25
21
48.25
0
LINE
8
0
10
342.25
20
48.25
11
342.25
21
31.75
0
LINE
8
0
10
342.25
20
50.75
11
359.75
21
50.75
0
LINE
8
0
10
359.75
20
50.75
11
359.75
21
67.25
0
LINE
8
0
10
359.75
20
67.25
11
342.25
21
67.25
0
LINE
8
0
10
342.25
20
67.25
11
342.25
21
50.75
0
LINE
8
0
10
342.25
20
69.75
11
359.75
21
69.75
0
LINE
8
0
10
359.75
20
69.75
11
359.75
21
86.25
0
LINE
8
0
10
359.75
20
86.25
11
342.25
21
86.25
0
LINE
8
0
10
342.25
20
86.25
11
342.25
21
69.75
0
LINE
8
0
10
323.25
20
-4.25
11
340.75
21
-4.25
0
LINE
8
0
10
340.75
20
-4.25
11
340.75
21
12.25
0
LINE
8
0
10
340.75
20
12.25
11
323.25
21
12.25
0
LINE
8
0
10
323.25
20
12.25
11
323.25
21
-4.25
0
LINE
8
0
10
323.25
20
14.75
11
340.75
21
14.75
0
LINE
8
0
10
340.75
20
14.75
11
340.75
21
31.25
0
LINE
8
0
10
340.75
20
31.25
11
323.25
21
31.25
0
LINE
8
0
10
323.25
20
31.25
11
323.25
21
14.75
0
LINE
8
0
10
323.25
20
33.75
11
340.75
21
33.75
0
LINE
8
0
10
340.75
20
33.75
11
340.75
21
50.25
0
LINE
8
0
10
340.75
20
50.25
11
323.25
21
50.25
0
LINE
8
0
10
323.25
20
50.25
11
323.25
21
33.75
0
LINE
8
0
10
323.25
20
52.75
11
340.75
21
52.75
0
LINE
8
0
10
340.75
20
52.75
11
340.75
21
69.25
0
LINE
8
0
10
340.75
20
69.25
11
323.25
21
69.25
0
LINE
8
0
10
323.25
20
69.25
11
323.25
21
52.75
0
LINE
8
0
10
323.25
20
71.75
11
340.75
21
71.75
0
LINE
8
0
10
340.75
20
71.75
11
340.75
21
88.25
0
LINE
8
0
10
340.75
20
88.25
11
323.25
21
88.25
0
LINE
8
0
10
323.25
20
88.25
11
323.25
21
71.75
0
LINE
8
0
10
304.25
20
-2.25
11
321.75
21
-2.25
0
LINE
8
0
10
321.75
20
-2.25
11
321.75
21
14.25
0
LINE
8
0
10
321.75
20
14.25
11
304.25
21
14.25
0
LINE
8
0
10
304.25
20
14.25
11
304.25
21
-2.25
0
LINE
8
0
10
304.25
20
16.75
11
321.75
21
16.75
0
LINE
8
0
10
321.75
20
16.75
11
321.75
21
33.25
0
LINE
8
0
10
321.75
20
33.25
11
304.25
21
33.25
0
LINE
8
0
10
304.25
20
33.25
11
304.25
21
16.75
0
LINE
8
0
10
304.25
20
35.75
11
321.75
21
35.75
0
LINE
8
0
10
321.75
20
35.75
11
321.75
21
52.25
0
LINE
8
0
10
321.75
20
52.25
11
304.25
21
52.25
0
LINE
8
0
10
304.25
20
52.25
11
304.25
21
35.75
0
LINE
8
0
10
304.25
20
54.75
11
321.75
21
54.75
0
LINE
8
0
10
321.75
20
54.75
11
321.75
21
71.25
0
LINE
8
0
10
321.75
20
71.25
11
304.25
21
71.25
0
LINE
8
0
10
304.25
20
71.25
11
304.25
21
54.75
0
LINE
8
0
10
304.25
20
73.75
11
321.75
21
73.75
0
LINE
8
0
10
321.75
20
73.75
11
321.75
21
90.25
0
LINE
8
0
10
321.75
20
90.25
11
304.25
21
90.25
0
LINE
8
0
10
304.25
20
90.25
11
304.25
21
73.75
0
LINE
8
0
10
285.25
20
-0.25
11
302.75
21
-0.25
0
LINE
8
0
10
302.75
20
-0.25
11
302.75
21
16.25
0
LINE
8
0
10
302.75
20
16.25
11
285.25
21
16.25
0
LINE
8
0
10
285.25
20
16.25
11
285.25
21
-0.25
0
LINE
8
0
10
285.25
20
18.75
11
302.75
21
18.75
0
LINE
8
0
10
302.75
20
18.75
11
302.75
21
35.25
0
LINE
8
0
10
302.75
20
35.25
11
285.25
21
35.25
0
LINE
8
0
10
285.25
20
35.25
11
285.25
21
18.75
0
LINE
8
0
10
285.25
20
37.75
11
302.75
21
37.75
0
LINE
8
0
10
302.75
20
37.75
11
302.75
21
54.25
0
LINE
8
0
10
302.75
20
54.25
11
285.25
21
54.25
0
LINE
8
0
10
285.25
20
54.25
11
285.25
21
37.75
0
LINE
8
0
10
285.25
20
56.75
11
302.75
21
56.75
0
LINE
8
0
10
302.75
20
56.75
11
302.75
21
73.25
0
LINE
8
0
10
302.75
20
73.25
11
285.25
21
73.25
0
LINE
8
0
10
285.25
20
73.25
11
285.25
21
56.75
0
LINE
8
0
10
285.25
20
75.75
11
302.75
21
75.75
0
LINE
8
0
10
302.75
20
75.75
11
302.75
21
92.25
0
LINE
8
0
10
302.75
20
92.25
11
285.25
21
92.25
0
LINE
8
0
10
285.25
20
92.25
11
285.25
21
75.75
0
LINE
8
0
10
266.25
20
13.75
11
283.75
21
13.75
0
LINE
8
0
10
283.75
20
13.75
11
283.75
21
30.25
0
LINE
8
0
10
283.75
20
30.25
11
266.25
21
30.25
0
LINE
8
0
10
266.25
20
30.25
11
266.25
21
13.75
0
LINE
8
0
10
266.25
20
32.75
11
283.75
21
32.75
0
LINE
8
0
10
283.75
20
32.75
11
283.75
21
49.25
0
LINE
8
0
10
283.75
20
49.25
11
266.25
21
49.25
0
LINE
8
0
10
266.25
20
49.25
11
266.25
21
32.75
0
LINE
8
0
10
266.25
20
51.75
11
283.75
21
51.75
0
LINE
8
0
10
283.75
20
51.75
11
283.75
21
68.25
0
LINE
8
0
10
283.75
20
68.25
11
266.25
21
68.25
0
LINE
8
0
10
266.25
20
68.25
11
266.25
21
51.75
0
LINE
8
0
10
266.25
20
70.75
11
283.75
21
70.75
0
LINE
8
0
10
283.75
20
70.75
11
283.75
21
87.25
0
LINE
8
0
10
283.75
20
87.25
11
266.25
21
87.25
0
LINE
8
0
10
266.25
20
87.25
11
266.25
21
70.75
0
LINE
8
0
10
211.7664453
20
-15.6834061
11
216.2957786
21
-32.5871081
0
LINE
8
0
10
216.2957786
20
-32.5871081
11
232.2335547
21
-28.3165939
0
LINE
8
0
10
232.2335547
20
-28.3165939
11
227.7042214
21
-11.4128919
0
LINE
8
0
10
227.7042214
20
-11.4128919
11
211.7664453
21
-15.6834061
0
LINE
8
0
10
231.2837217
20
-15.1125104
11
235.813055
21
-32.0162124
0
LINE
8
0
10
235.813055
20
-32.0162124
11
251.7508311
21
-27.7456982
0
LINE
8
0
10
251.7508311
20
-27.7456982
11
247.2214978
21
-10.8419962
0
LINE
8
0
10
247.2214978
20
-10.8419962
11
231.2837217
21
-15.1125104
0
LINE
8
0
10
249.6363124
20
-10.1949485
11
254.1656457
21
-27.0986505
0
LINE
8
0
10
254.1656457
20
-27.0986505
11
270.1034218
21
-22.8281363
0
LINE
8
0
10
270.1034218
20
-22.8281363
11
265.5740885
21
-5.9244343
0
LINE
8
0
10
265.5740885
20
-5.9244343
11
249.6363124
21
-10.1949485
0
LINE
8
0
10
206.8488834
20
2.6691846
11
211.3782167
21
-14.2345174
0
LINE
8
0
10
211.3782167
20
-14.2345174
11
227.3159928
21
-9.9640032
0
LINE
8
0
10
227.3159928
20
-9.9640032
11
222.7866595
21
6.9396988
0
LINE
8
0
10
222.7866595
20
6.9396988
11
206.8488834
21
2.6691846
0
LINE
8
0
10
225.2014741
20
7.5867465
11
229.7308074
21
-9.3169555
0
LINE
8
0
10
229.7308074
20
-9.3169555
11
245.6685835
21
-5.0464413
0
LINE
8
0
10
245.6685835
20
-5.0464413
11
241.1392502
21
11.8572607
0
LINE
8
0
10
241.1392502
20
11.8572607
11
225.2014741
21
7.5867465
0
LINE
8
0
10
243.5540648
20
12.5043084
11
248.0833981
21
-4.3993936
0
LINE
8
0
10
248.0833981
20
-4.3993936
11
264.0211742
21
-0.1288794
0
LINE
8
0
10
264.0211742
20
-0.1288794
11
259.4918409
21
16.7748226
0
LINE
8
0
10
259.4918409
20
16.7748226
11
243.5540648
21
12.5043084
0
ENDSEC
0
EOF