0
SECTION
2
HEADER
9
$INSUNITS
70
4
0
ENDSEC
0
SECTION
2
TABLES
0
TABLE
2
LTYPE
0
LTYPE
72
65
70
64
2
CONTINUOUS
3
______
73
0
40
0
0
ENDTAB
0
TABLE
2
LAYER
0
ENDTAB
0
ENDSEC
0
SECTION
2
ENTITIES
0
LINE
8
0
10
-10
20
9.5
11
-1
21
9.5
0
LINE
8
0
10
-10
20
9.5
11
-10
21
85.5
0
LINE
8
0
10
-10
20
85.5
11
9
21
85.5
0
LINE
8
0
10
9
20
-7.5
11
29
21
-7.5
0
LINE
8
0
10
29
20
-7.5
11
29
21
-5.5
0
LINE
8
0
10
9
20
1.5
11
9
21
-7.5
0
LINE
8
0
10
9
20
1.5
11
-1
21
1.5
0
LINE
8
0
10
-1
20
1.5
11
-1
21
9.5
0
LINE
8
0
10
9
20
87.5
11
28
21
87.5
0
LINE
8
0
10
9
20
87.5
11
9
21
85.5
0
LINE
8
0
10
29
20
-5.5
11
48
21
-5.5
0
LINE
8
0
10
48
20
-5.5
11
48
21
-3.5
0
LINE
8
0
10
28
20
89.5
11
47
21
89.5
0
LINE
8
0
10
28
20
89.5
11
28
21
87.5
0
LINE
8
0
10
48
20
-3.5
11
67
21
-3.5
0
LINE
8
0
10
67
20
-3.5
11
67
21
-1.5
0
LINE
8
0
10
47
20
91.5
11
66
21
91.5
0
LINE
8
0
10
47
20
91.5
11
47
21
89.5
0
LINE
8
0
10
67
20
-1.5
11
86
21
-1.5
0
LINE
8
0
10
86
20
-1.5
11
86
21
7.5
0
LINE
8
0
10
96
20
12.5
11
96
21
7.5
0
LINE
8
0
10
96
20
7.5
11
86
21
7.5
0
LINE
8
0
10
86
20
88.5
11
86
21
93.5
0
LINE
8
0
10
86
20
93.5
11
66
21
93.5
0
LINE
8
0
10
66
20
93.5
11
66
21
91.5
0
LINE
8
0
10
96
20
12.5
11
105
21
12.5
0
LINE
8
0
10
105
20
12.5
11
105
21
88.5
0
LINE
8
0
10
86
20
88.5
11
105
21
88.5
0
LINE
8
0
10
154.5881049
20
-34.1180392
11
164.6820477
21
3.553068
0
LINE
8
0
10
145.8947724
20
-31.7886678
11
154.5881049
21
-34.1180392
0
LINE
8
0
10
130.5879512
20
-11.6404365
11
131.4938178
21
-8.2596962
0
LINE
8
0
10
103.542028
20
-4.3935032
11
130.5879512
21
-11.6404365
0
LINE
8
0
10
98.3656471
20
-23.7120197
11
125.8945331
21
-31.0883626
0
LINE
8
0
10
125.8945331
20
-31.0883626
11
126.3774961
21
-31.217772
0
LINE
8
0
10
126.3774961
20
-31.217772
11
144.7300868
21
-36.1353339
0
LINE
8
0
10
145.8947724
20
-31.7886678
11
144.7300868
21
-36.1353339
0
LINE
8
0
10
103.542028
20
-4.3935032
11
98.3656471
21
-23.7120197
0
LINE
8
0
10
109.6242756
20
18.3057537
11
164.6820477
21
3.553068
0
LINE
8
0
10
104.4478947
20
-1.0127628
11
131.4938178
21
-8.2596962
0
LINE
8
0
10
109.6242756
20
18.3057537
11
104.4478947
21
-1.0127628
0
LINE
8
0
10
371
20
9.5
11
380
21
9.5
0
LINE
8
0
10
380
20
9.5
11
380
21
85.5
0
LINE
8
0
10
361
20
85.5
11
380
21
85.5
0
LINE
8
0
10
341
20
-7.5
11
361
21
-7.5
0
LINE
8
0
10
361
20
-7.5
11
361
21
1.5
0
LINE
8
0
10
341
20
-5.5
11
341
21
-7.5
0
LINE
8
0
10
371
20
9.5
11
371
21
1.5
0
LINE
8
0
10
371
20
1.5
11
361
21
1.5
0
LINE
8
0
10
361
20
85.5
11
361
21
87.5
0
LINE
8
0
10
342
20
87.5
11
361
21
87.5
0
LINE
8
0
10
322
20
-5.5
11
341
21
-5.5
0
LINE
8
0
10
322
20
-3.5
11
322
21
-5.5
0
LINE
8
0
10
342
20
87.5
11
342
21
89.5
0
LINE
8
0
10
323
20
89.5
11
342
21
89.5
0
LINE
8
0
10
303
20
-3.5
11
322
21
-3.5
0
LINE
8
0
10
303
20
-1.5
11
303
21
-3.5
0
LINE
8
0
10
323
20
89.5
11
323
21
91.5
0
LINE
8
0
10
304
20
91.5
11
323
21
91.5
0
LINE
8
0
10
284
20
-1.5
11
303
21
-1.5
0
LINE
8
0
10
284
20
7.5
11
284
21
-1.5
0
LINE
8
0
10
284
20
7.5
11
274
21
7.5
0
LINE
8
0
10
274
20
7.5
11
274
21
12.5
0
LINE
8
0
10
304
20
91.5
11
304
21
93.5
0
LINE
8
0
10
304
20
93.5
11
284
21
93.5
0
LINE
8
0
10
284
20
93.5
11
284
21
88.5
0
LINE
8
0
10
265
20
12.5
11
274
21
12.5
0
LINE
8
0
10
265
20
12.5
11
265
21
88.5
0
LINE
8
0
10
265
20
88.5
11
284
21
88.5
0
LINE
8
0
10
205.3179523
20
3.553068
11
215.4118951
21
-34.1180392
0
LINE
8
0
10
215.4118951
20
-34.1180392
11
224.1052276
21
-31.7886678
0
LINE
8
0
10
238.5061822
20
-8.2596962
11
239.4120488
21
-11.6404365
0
LINE
8
0
10
225.2699132
20
-36.1353339
11
271.6343529
21
-23.7120197
0
LINE
8
0
10
239.4120488
20
-11.6404365
11
266.457972
21
-4.3935032
0
LINE
8
0
10
225.2699132
20
-36.1353339
11
224.1052276
21
-31.7886678
0
LINE
8
0
10
271.6343529
20
-23.7120197
11
266.457972
21
-4.3935032
0
LINE
8
0
10
205.3179523
20
3.553068
11
260.3757244
21
18.3057537
0
LINE
8
0
10
238.5061822
20
-8.2596962
11
265.5521053
21
-1.0127628
0
LINE
8
0
10
265.5521053
20
-1.0127628
11
260.3757244
21
18.3057537
0
ENDSEC
0
EOF