0
SECTION
2
HEADER
9
$INSUNITS
70
4
0
ENDSEC
0
SECTION
2
TABLES
0
TABLE
2
LTYPE
0
LTYPE
72
65
70
64
2
CONTINUOUS
3
______
73
0
40
0
0
ENDTAB
0
TABLE
2
LAYER
0
ENDTAB
0
ENDSEC
0
SECTION
2
ENTITIES
0
LINE
8
0
10
-20.005
20
-0.005
11
-20.005
21
95.005
0
LINE
8
0
10
-20.005
20
95.005
11
36.995
21
101.005
0
LINE
8
0
10
36.995
20
101.005
11
56.005
21
103.005
0
LINE
8
0
10
56.005
20
103.005
11
115.005
21
98.005
0
LINE
8
0
10
115.005
20
41.005
11
115.005
21
98.005
0
LINE
8
0
10
115.005
20
41.005
11
116.005
21
27.005
0
LINE
8
0
10
116.005
20
27.005
11
139.7378166
21
20.5947928
0
LINE
8
0
10
139.7378166
20
20.5947928
11
144.5847833
21
20.3313282
0
LINE
8
0
10
144.5847833
20
20.3313282
11
181.2899647
21
10.4962045
0
LINE
8
0
10
181.2899647
20
10.4962045
11
161.311743
21
-45.7495799
0
LINE
8
0
10
161.311743
20
-45.7495799
11
141.6650571
21
-45.6616471
0
LINE
8
0
10
141.6650571
20
-45.6616471
11
96
21
-30
0
LINE
8
0
10
96
20
-30
11
77.005
21
-13.005
0
LINE
8
0
10
39.005
20
-17.005
11
77.005
21
-13.005
0
LINE
8
0
10
39.005
20
-17.005
11
-0.995
21
-17.005
0
LINE
8
0
10
-0.995
20
-17.005
11
-20.005
21
-0.005
0
LINE
8
0
10
-8.75
20
10.75
11
8.75
21
10.75
0
LINE
8
0
10
8.75
20
10.75
11
8.75
21
27.25
0
LINE
8
0
10
8.75
20
27.25
11
-8.75
21
27.25
0
LINE
8
0
10
-8.75
20
27.25
11
-8.75
21
10.75
0
LINE
8
0
10
-8.75
20
29.75
11
8.75
21
29.75
0
LINE
8
0
10
8.75
20
29.75
11
8.75
21
46.25
0
LINE
8
0
10
8.75
20
46.25
11
-8.75
21
46.25
0
LINE
8
0
10
-8.75
20
46.25
11
-8.75
21
29.75
0
LINE
8
0
10
-8.75
20
48.75
11
8.75
21
48.75
0
LINE
8
0
10
8.75
20
48.75
11
8.75
21
65.25
0
LINE
8
0
10
8.75
20
65.25
11
-8.75
21
65.25
0
LINE
8
0
10
-8.75
20
65.25
11
-8.75
21
48.75
0
LINE
8
0
10
-8.75
20
67.75
11
8.75
21
67.75
0
LINE
8
0
10
8.75
20
67.75
11
8.75
21
84.25
0
LINE
8
0
10
8.75
20
84.25
11
-8.75
21
84.25
0
LINE
8
0
10
-8.75
20
84.25
11
-8.75
21
67.75
0
LINE
8
0
10
10.25
20
-6.25
11
27.75
21
-6.25
0
LINE
8
0
10
27.75
20
-6.25
11
27.75
21
10.25
0
LINE
8
0
10
27.75
20
10.25
11
10.25
21
10.25
0
LINE
8
0
10
10.25
20
10.25
11
10.25
21
-6.25
0
LINE
8
0
10
10.25
20
12.75
11
27.75
21
12.75
0
LINE
8
0
10
27.75
20
12.75
11
27.75
21
29.25
0
LINE
8
0
10
27.75
20
29.25
11
10.25
21
29.25
0
LINE
8
0
10
10.25
20
29.25
11
10.25
21
12.75
0
LINE
8
0
10
10.25
20
31.75
11
27.75
21
31.75
0
LINE
8
0
10
27.75
20
31.75
11
27.75
21
48.25
0
LINE
8
0
10
27.75
20
48.25
11
10.25
21
48.25
0
LINE
8
0
10
10.25
20
48.25
11
10.25
21
31.75
0
LINE
8
0
10
10.25
20
50.75
11
27.75
21
50.75
0
LINE
8
0
10
27.75
20
50.75
11
27.75
21
67.25
0
LINE
8
0
10
27.75
20
67.25
11
10.25
21
67.25
0
LINE
8
0
10
10.25
20
67.25
11
10.25
21
50.75
0
LINE
8
0
10
10.25
20
69.75
11
27.75
21
69.75
0
LINE
8
0
10
27.75
20
69.75
11
27.75
21
86.25
0
LINE
8
0
10
27.75
20
86.25
11
10.25
21
86.25
0
LINE
8
0
10
10.25
20
86.25
11
10.25
21
69.75
0
LINE
8
0
10
29.25
20
-4.25
11
46.75
21
-4.25
0
LINE
8
0
10
46.75
20
-4.25
11
46.75
21
12.25
0
LINE
8
0
10
46.75
20
12.25
11
29.25
21
12.25
0
LINE
8
0
10
29.25
20
12.25
11
29.25
21
-4.25
0
LINE
8
0
10
29.25
20
14.75
11
46.75
21
14.75
0
LINE
8
0
10
46.75
20
14.75
11
46.75
21
31.25
0
LINE
8
0
10
46.75
20
31.25
11
29.25
21
31.25
0
LINE
8
0
10
29.25
20
31.25
11
29.25
21
14.75
0
LINE
8
0
10
29.25
20
33.75
11
46.75
21
33.75
0
LINE
8
0
10
46.75
20
33.75
11
46.75
21
50.25
0
LINE
8
0
10
46.75
20
50.25
11
29.25
21
50.25
0
LINE
8
0
10
29.25
20
50.25
11
29.25
21
33.75
0
LINE
8
0
10
29.25
20
52.75
11
46.75
21
52.75
0
LINE
8
0
10
46.75
20
52.75
11
46.75
21
69.25
0
LINE
8
0
10
46.75
20
69.25
11
29.25
21
69.25
0
LINE
8
0
10
29.25
20
69.25
11
29.25
21
52.75
0
LINE
8
0
10
29.25
20
71.75
11
46.75
21
71.75
0
LINE
8
0
10
46.75
20
71.75
11
46.75
21
88.25
0
LINE
8
0
10
46.75
20
88.25
11
29.25
21
88.25
0
LINE
8
0
10
29.25
20
88.25
11
29.25
21
71.75
0
LINE
8
0
10
48.25
20
-2.25
11
65.75
21
-2.25
0
LINE
8
0
10
65.75
20
-2.25
11
65.75
21
14.25
0
LINE
8
0
10
65.75
20
14.25
11
48.25
21
14.25
0
LINE
8
0
10
48.25
20
14.25
11
48.25
21
-2.25
0
LINE
8
0
10
48.25
20
16.75
11
65.75
21
16.75
0
LINE
8
0
10
65.75
20
16.75
11
65.75
21
33.25
0
LINE
8
0
10
65.75
20
33.25
11
48.25
21
33.25
0
LINE
8
0
10
48.25
20
33.25
11
48.25
21
16.75
0
LINE
8
0
10
48.25
20
35.75
11
65.75
21
35.75
0
LINE
8
0
10
65.75
20
35.75
11
65.75
21
52.25
0
LINE
8
0
10
65.75
20
52.25
11
48.25
21
52.25
0
LINE
8
0
10
48.25
20
52.25
11
48.25
21
35.75
0
LINE
8
0
10
48.25
20
54.75
11
65.75
21
54.75
0
LINE
8
0
10
65.75
20
54.75
11
65.75
21
71.25
0
LINE
8
0
10
65.75
20
71.25
11
48.25
21
71.25
0
LINE
8
0
10
48.25
20
71.25
11
48.25
21
54.75
0
LINE
8
0
10
48.25
20
73.75
11
65.75
21
73.75
0
LINE
8
0
10
65.75
20
73.75
11
65.75
21
90.25
0
LINE
8
0
10
65.75
20
90.25
11
48.25
21
90.25
0
LINE
8
0
10
48.25
20
90.25
11
48.25
21
73.75
0
LINE
8
0
10
67.25
20
-0.25
11
84.75
21
-0.25
0
LINE
8
0
10
84.75
20
-0.25
11
84.75
21
16.25
0
LINE
8
0
10
84.75
20
16.25
11
67.25
21
16.25
0
LINE
8
0
10
67.25
20
16.25
11
67.25
21
-0.25
0
LINE
8
0
10
67.25
20
18.75
11
84.75
21
18.75
0
LINE
8
0
10
84.75
20
18.75
11
84.75
21
35.25
0
LINE
8
0
10
84.75
20
35.25
11
67.25
21
35.25
0
LINE
8
0
10
67.25
20
35.25
11
67.25
21
18.75
0
LINE
8
0
10
67.25
20
37.75
11
84.75
21
37.75
0
LINE
8
0
10
84.75
20
37.75
11
84.75
21
54.25
0
LINE
8
0
10
84.75
20
54.25
11
67.25
21
54.25
0
LINE
8
0
10
67.25
20
54.25
11
67.25
21
37.75
0
LINE
8
0
10
67.25
20
56.75
11
84.75
21
56.75
0
LINE
8
0
10
84.75
20
56.75
11
84.75
21
73.25
0
LINE
8
0
10
84.75
20
73.25
11
67.25
21
73.25
0
LINE
8
0
10
67.25
20
73.25
11
67.25
21
56.75
0
LINE
8
0
10
67.25
20
75.75
11
84.75
21
75.75
0
LINE
8
0
10
84.75
20
75.75
11
84.75
21
92.25
0
LINE
8
0
10
84.75
20
92.25
11
67.25
21
92.25
0
LINE
8
0
10
67.25
20
92.25
11
67.25
21
75.75
0
LINE
8
0
10
86.25
20
13.75
11
103.75
21
13.75
0
LINE
8
0
10
103.75
20
13.75
11
103.75
21
30.25
0
LINE
8
0
10
103.75
20
30.25
11
86.25
21
30.25
0
LINE
8
0
10
86.25
20
30.25
11
86.25
21
13.75
0
LINE
8
0
10
86.25
20
32.75
11
103.75
21
32.75
0
LINE
8
0
10
103.75
20
32.75
11
103.75
21
49.25
0
LINE
8
0
10
103.75
20
49.25
11
86.25
21
49.25
0
LINE
8
0
10
86.25
20
49.25
11
86.25
21
32.75
0
LINE
8
0
10
86.25
20
51.75
11
103.75
21
51.75
0
LINE
8
0
10
103.75
20
51.75
11
103.75
21
68.25
0
LINE
8
0
10
103.75
20
68.25
11
86.25
21
68.25
0
LINE
8
0
10
86.25
20
68.25
11
86.25
21
51.75
0
LINE
8
0
10
86.25
20
70.75
11
103.75
21
70.75
0
LINE
8
0
10
103.75
20
70.75
11
103.75
21
87.25
0
LINE
8
0
10
103.75
20
87.25
11
86.25
21
87.25
0
LINE
8
0
10
86.25
20
87.25
11
86.25
21
70.75
0
LINE
8
0
10
153.7042214
20
-32.5871081
11
158.2335547
21
-15.6834061
0
LINE
8
0
10
158.2335547
20
-15.6834061
11
142.2957786
21
-11.4128919
0
LINE
8
0
10
142.2957786
20
-11.4128919
11
137.7664453
21
-28.3165939
0
LINE
8
0
10
137.7664453
20
-28.3165939
11
153.7042214
21
-32.5871081
0
LINE
8
0
10
134.186945
20
-32.0162124
11
138.7162783
21
-15.1125104
0
LINE
8
0
10
138.7162783
20
-15.1125104
11
122.7785022
21
-10.8419962
0
LINE
8
0
10
122.7785022
20
-10.8419962
11
118.2491689
21
-27.7456982
0
LINE
8
0
10
118.2491689
20
-27.7456982
11
134.186945
21
-32.0162124
0
LINE
8
0
10
115.8343543
20
-27.0986505
11
120.3636876
21
-10.1949485
0
LINE
8
0
10
120.3636876
20
-10.1949485
11
104.4259115
21
-5.9244343
0
LINE
8
0
10
104.4259115
20
-5.9244343
11
99.8965782
21
-22.8281363
0
LINE
8
0
10
99.8965782
20
-22.8281363
11
115.8343543
21
-27.0986505
0
LINE
8
0
10
158.6217833
20
-14.2345174
11
163.1511166
21
2.6691846
0
LINE
8
0
10
163.1511166
20
2.6691846
11
147.2133405
21
6.9396988
0
LINE
8
0
10
147.2133405
20
6.9396988
11
142.6840072
21
-9.9640032
0
LINE
8
0
10
142.6840072
20
-9.9640032
11
158.6217833
21
-14.2345174
0
LINE
8
0
10
140.2691926
20
-9.3169555
11
144.7985259
21
7.5867465
0
LINE
8
0
10
144.7985259
20
7.5867465
11
128.8607498
21
11.8572607
0
LINE
8
0
10
128.8607498
20
11.8572607
11
124.3314165
21
-5.0464413
0
LINE
8
0
10
124.3314165
20
-5.0464413
11
140.2691926
21
-9.3169555
0
LINE
8
0
10
121.9166019
20
-4.3993936
11
126.4459352
21
12.5043084
0
LINE
8
0
10
126.4459352
20
12.5043084
11
110.5081591
21
16.7748226
0
LINE
8
0
10
110.5081591
20
16.7748226
11
105.9788258
21
-0.1288794
0
LINE
8
0
10
105.9788258
20
-0.1288794
11
121.9166019
21
-4.3993936
0
ENDSEC
0
EOF